<svg version="1" xmlns="http://www.w3.org/2000/svg" width="348" height="348" viewBox="0 0 261.000000 261.000000"><path d="M1 2.9c-.7 1.3-1 43.3-1 129 0 124.7 0 127 1.9 128.1 1.4.7 43 .9 130.3.8l128.3-.3.3-18.8.2-18.7h-5.7c-3.2-.1-51.2-.1-106.8-.1-55.6 0-102.2-.2-103.8-.5-1.8-.4-2.9-1.4-3.3-2.9-.3-1.4-.7-50.6-.7-109.5C40.5 16 40.3 2.8 39 2c-.8-.5-9.5-1-19.2-1C3.3 1 2 1.1 1 2.9z"/><path d="M74.8 2.1C73.1 3 73 8.5 73 94.5c0 79.2.2 91.6 1.5 92.8 1.2 1.2 4.8 1.5 19 1.5 16.7 0 17.6-.1 19-2.1 1.3-1.8 1.5-12.3 1.5-73.4V42l2.3-1.4c1.9-1.2 12.3-1.5 69.7-1.5h71.3l3.7-.1-.2-18.8-.3-18.7-92-.2c-61.3-.2-92.6.1-93.7.8z"/><path d="M149.3 74.5c-1.7 1.3-1.8 4.2-1.8 56.2 0 49.6.1 54.9 1.6 56.4s6.8 1.7 56.5 1.5l54.9-.1.3-18.7c.2-17.1.1-18.7-1.5-19.1-1-.3-15.5-.6-32.3-.6-16.8 0-31.6 0-33-.1-5.7-.1-5.5 1.1-5.6-38.1-.1-32.8-.3-36.3-1.8-37.4-2.5-1.9-34.8-1.8-37.3 0z"/></svg>